<svg id="Layer_1" enable-background="new 0 0 512 512" height="512" viewBox="0 0 512 512" width="512" xmlns="http://www.w3.org/2000/svg"><g><g><g><path d="m452.112 474.455c20.491 0 34.592-20.803 26.757-39.737-7.09-17.133-17.734-29.622-4.74-58.744 22.961-51.459 10.602-78.75-9.714-111.79-34.441-56.012-9.261-84.62-22.653-133.142-48.223-174.717-323.296-174.728-371.523 0-13.393 48.522 11.788 77.129-22.653 133.142-20.316 33.04-32.675 60.331-9.714 111.79 12.994 29.122 2.35 41.612-4.74 58.744-7.835 18.934 6.266 39.737 26.757 39.737z" fill="#735351"/><path d="m474.129 375.974c22.961-51.459 10.602-78.75-9.714-111.79-34.441-56.013-9.261-84.62-22.653-133.142-25.651-92.932-115.481-136.437-201.218-130.508 75.454 5.217 147.738 48.721 170.312 130.508 13.393 48.522-11.788 77.129 22.653 133.142 20.316 33.04 32.675 60.331 9.714 111.79-12.994 29.122-2.35 41.612 4.74 58.744 7.835 18.934-6.266 39.737-26.757 39.737h30.905c20.491 0 34.592-20.804 26.757-39.737-7.089-17.133-17.733-29.623-4.739-58.744z" fill="#664442"/><g><g><ellipse cx="396.338" cy="271.048" fill="#ffd8ba" rx="31.298" ry="31.444"/></g><g><ellipse cx="115.662" cy="271.048" fill="#ffd8ba" rx="31.298" ry="31.444"/></g></g><g><path d="m111.533 512v-23.24c0-79.666 64.582-144.248 144.248-144.248h.439c79.666 0 144.248 64.582 144.248 144.248v23.24z" fill="#ff80b3"/><path d="m256.219 344.512h-.439c-5.145 0-10.227.27-15.233.796 72.505 7.61 129.015 68.932 129.015 143.452v23.24h30.905v-23.24c0-79.666-64.582-144.248-144.248-144.248z" fill="#ff6ba7"/><path d="m256.056 454.528h-.111c-20.21 0-36.594-16.384-36.594-36.594v-59.226h73.298v59.226c0 20.21-16.383 36.594-36.593 36.594z" fill="#ffd8ba"/></g><g><path d="m181.344 100.439c-4.633 47.132-28.565 52.383-43.343 57.509-7.086 2.458-11.818 9.18-11.818 16.711v89.116c0 72.03 58.121 130.421 129.818 130.421 71.696 0 129.817-58.392 129.817-130.421v-82.906c0-10.037-8.296-17.981-18.283-17.687-15.63.459-41.584.577-61.692-19.332-25.633-25.379-40.459-16.343-67.211-16.954-33.445-.764-47.285-16.346-52.895-27.297-1.069-2.087-4.163-1.496-4.393.84z" fill="#ffd8ba"/></g></g><g fill="#735351"><path d="m164.702 204.029c-2.289 0-4.554-1.01-6.076-2.945-2.632-3.346-2.073-8.18 1.263-10.823.625-.495 15.51-12.12 34.848-12.581 4.275-.106 7.807 3.275 7.908 7.54.102 4.266-3.275 7.807-7.54 7.908-14.047.335-25.526 9.171-25.641 9.261-1.414 1.104-3.094 1.64-4.762 1.64z"/><path d="m347.308 204.044c-1.674 0-3.359-.542-4.776-1.657-.261-.201-11.681-8.925-25.637-9.258-4.266-.102-7.642-3.642-7.54-7.908s3.651-7.632 7.908-7.54c19.338.461 34.223 12.086 34.848 12.581 3.344 2.65 3.907 7.51 1.257 10.854-1.525 1.924-3.782 2.928-6.06 2.928z"/></g></g><g fill="#f0b07f"><path d="m337.459 268.183c-1.623 0-3.259-.509-4.653-1.563-18.953-14.325-46.063-4.695-46.337-4.597-2.927 1.067-6.218.268-8.332-2.03-2.112-2.298-2.635-5.64-1.324-8.473.459-.992 11.571-24.344 39.904-27.15 4.253-.425 8.03 2.681 8.451 6.927s-2.681 8.03-6.928 8.45c-4.856.481-8.981 1.83-12.441 3.592 11.277-.153 24.66 2.136 36.324 10.953 3.404 2.573 4.077 7.419 1.505 10.823-1.518 2.009-3.83 3.068-6.169 3.068z"/><path d="m174.541 268.183c-2.339 0-4.651-1.058-6.17-3.068-2.572-3.404-1.899-8.249 1.505-10.823 11.66-8.813 25.029-11.108 36.322-10.953-3.46-1.762-7.585-3.111-12.439-3.592-4.246-.421-7.348-4.204-6.928-8.45.422-4.246 4.205-7.352 8.451-6.927 28.333 2.806 39.446 26.157 39.904 27.15 1.311 2.833.788 6.176-1.324 8.473-2.114 2.298-5.401 3.097-8.332 2.03-.257-.092-27.528-9.623-46.337 4.597-1.393 1.053-3.029 1.563-4.652 1.563z"/></g><path d="m323.888 295.334c0 33.943-30.394 61.459-67.888 61.459s-67.888-27.516-67.888-61.459z" fill="#e86d6d"/><g><path d="m323.888 295.333h-135.776c0 8.99 2.15 17.521 5.981 25.217h123.813c3.832-7.696 5.982-16.226 5.982-25.217z" fill="#fff"/></g><g fill="#99d6ff"><path d="m127.443 327.532c-8.854 7.639-22.224 6.654-29.863-2.2s-6.654-22.224 2.2-29.863 48.603-13.968 48.603-13.968-12.086 38.392-20.94 46.031z"/><path d="m384.557 327.532c8.854 7.639 22.224 6.654 29.863-2.2s6.654-22.224-2.2-29.863-48.603-13.968-48.603-13.968 12.086 38.392 20.94 46.031z"/></g></g></svg>