<svg id="Capa_1" enable-background="new 0 0 512 512" height="512" viewBox="0 0 512 512" width="512" xmlns="http://www.w3.org/2000/svg"><g><g><path d="m155.94 66.845v-50.866h120.314c6.114 0 11.609 3.733 13.862 9.417l16.43 41.45-81.868 37.635z" fill="#8ac9fe"/><path d="m306.548 66.846h-20.571l-16.428-41.451c-2.251-5.685-7.741-9.417-13.858-9.417h20.561c6.117 0 11.617 3.732 13.868 9.417z" fill="#60b7ff"/><path d="m414.447 66.845h-217.516c-6.114 0-11.609-3.733-13.862-9.417l-12.697-32.033c-2.253-5.684-7.748-9.417-13.862-9.417h-105.403c-8.235 0-14.912 6.676-14.912 14.912v21.043c0 8.235-6.676 14.912-14.912 14.912h-1.376c-10.994 0-19.907 8.914-19.907 19.909v305.379c0 18.413 14.927 33.339 33.339 33.339h401.015v-338.718c.001-10.995-8.912-19.909-19.907-19.909z" fill="#fef0ae"/><g fill="#fee97d"><path d="m434.355 112.564v312.909h-401.013c-3.526 0-6.929-.545-10.116-1.563 13.467-4.287 23.224-16.891 23.224-31.777v-259.666c0-10.99 8.913-19.903 19.913-19.903z"/><path d="m196.926 66.846h-20.602c-6.117 0-11.617-3.732-13.868-9.417l-12.696-32.034c-2.251-5.685-7.741-9.417-13.858-9.417h20.613c6.107 0 11.607 3.732 13.858 9.417l12.696 32.034c2.25 5.686 7.751 9.417 13.857 9.417z"/><path d="m434.355 86.749v338.723h-20.612v-338.723c0-10.99-8.913-19.903-19.903-19.903h20.602c11 0 19.913 8.914 19.913 19.903z"/></g><path d="m86.593 112.561h370.947c10.995 0 19.908 8.913 19.908 19.908v273.094c0 10.995-8.913 19.908-19.908 19.908h-390.855-33.342c18.415 0 33.343-14.928 33.343-33.343v-259.658c-.001-10.995 8.912-19.909 19.907-19.909z" fill="#fee45a"/><path d="m477.451 132.467v273.093c0 11-8.913 19.913-19.913 19.913h-20.561c11 0 19.913-8.913 19.913-19.913v-273.093c0-10.99-8.913-19.903-19.913-19.903h20.561c11 0 19.913 8.913 19.913 19.903z" fill="#fed402"/><g><path d="m178.696 340.209h-65.132c-4.143 0-7.5-3.358-7.5-7.5s3.357-7.5 7.5-7.5h65.132c4.143 0 7.5 3.358 7.5 7.5s-3.357 7.5-7.5 7.5z" fill="#fac600"/></g><g><path d="m217.178 371.523h-103.614c-4.143 0-7.5-3.358-7.5-7.5s3.357-7.5 7.5-7.5h103.613c4.143 0 7.5 3.358 7.5 7.5s-3.357 7.5-7.499 7.5z" fill="#fac600"/></g></g><g><circle cx="420.239" cy="404.26" fill="#97da7b" r="91.761"/><path d="m512 404.256c0 50.683-41.081 91.764-91.764 91.764-19.029 0-36.712-5.798-51.372-15.719 9.91 3.67 20.633 5.675 31.818 5.675 50.673 0 91.754-41.081 91.754-91.754 0-31.644-16.017-59.545-40.382-76.045 34.995 12.933 59.946 46.591 59.946 86.079z" fill="#80d261"/></g><g><g><path d="m407.618 456.696c-5.082 0-10.161-1.932-14.03-5.798-3.749-3.747-5.813-8.729-5.813-14.027 0-5.299 2.064-10.281 5.813-14.027l38.931-38.903c2.931-2.928 7.679-2.927 10.607.004 2.928 2.93 2.926 7.679-.004 10.606l-38.931 38.903c-.914.913-1.417 2.126-1.417 3.417s.503 2.504 1.417 3.417c1.889 1.889 4.964 1.888 6.853 0l44.196-44.164c3.245-3.243 5.032-7.554 5.032-12.139s-1.787-8.896-5.032-12.139c-6.699-6.696-17.606-6.698-24.31 0l-52.924 52.886c-2.931 2.927-7.679 2.927-10.607-.004-2.928-2.93-2.926-7.679.004-10.606l52.924-52.886c12.549-12.539 32.967-12.539 45.516 0 6.08 6.076 9.43 14.155 9.43 22.749s-3.349 16.673-9.429 22.75l-44.196 44.164c-3.869 3.864-8.95 5.796-14.03 5.797z" fill="#68ca44"/></g></g></g></svg>