<svg height="512pt" viewBox="0 0 512 512.03071" width="512pt" xmlns="http://www.w3.org/2000/svg"><path d="m62.203125 130.679688c-16.898437-11.585938-39.839844-8.417969-52.964844 7.3125-13.128906 15.734374-12.132812 38.871093 2.292969 53.421874l41.316406 41.398438zm0 0" fill="#a5a5a4"/><path d="m511.878906 406.101562c-9.160156 18.183594-21.785156 34.40625-37.164062 47.753907-44.046875 38.84375-111.226563 58.175781-187.9375 58.175781-86.15625 0-161.457032-29.835938-202.0625-74.328125-8.722656-9.417969-16.011719-20.066406-21.628906-31.601563-6.667969-13.765624-10.164063-28.847656-10.238282-44.140624v-172.402344c0-101.957032 80.59375-187.9375 182.550782-189.527344 14.789062-.273438 29.550781 1.269531 43.964843 4.589844 84.375 19.21875 144.238281 94.25 144.242188 180.789062v143.890625c-.230469 17.167969 4.0625 34.09375 12.445312 49.082031 11.652344 20.035157 36.457031 36.808594 75.828125 27.71875zm0 0" fill="#d1d4d1"/><path d="m474.714844 453.855469c-44.046875 38.84375-111.226563 58.175781-187.9375 58.175781-86.15625 0-161.457032-29.835938-202.0625-74.328125v-258.296875c-.78125-88.535156 70.359375-160.9375 158.894531-161.71875 10.769531-.015625 21.511719 1.109375 32.042969 3.351562 30.53125 6.398438 58.484375 21.695313 80.332031 43.960938 29.902344 30.566406 46.609375 71.648438 46.523437 114.40625v197.652344s0 54.996094 72.207032 76.796875zm0 0" fill="#e6e7e8"/><path d="m417.988281 256.976562 65.546875-65.546874c7.449219-7.449219 11.636719-17.554688 11.636719-28.089844s-4.1875-20.636719-11.636719-28.089844c-7.449218-7.449219-17.554687-11.632812-28.089844-11.632812-10.535156 0-20.640624 4.183593-28.089843 11.632812l-65.542969 65.546875zm0 0" fill="#d1d4d1"/><path d="m403.300781 244.722656 65.535157-65.542968c7.449218-7.453126 11.636718-17.554688 11.636718-28.089844s-4.1875-20.640625-11.636718-28.089844c-15.511719-15.507812-40.65625-15.507812-56.167969 0l-65.546875 65.542969zm0 0" fill="#e6e7e8"/><g fill="#3d324c"><path d="m108.855469 141.273438-18.308594 49.699218 39.238281-4.363281 2.183594 19.625 56.671875-26.164063zm0 0"/><path d="m300.355469 141.273438 18.304687 49.699218-39.238281-4.363281-2.179687 19.625-56.671876-26.164063zm0 0"/><path d="m238.226562 320.992188-35.3125 44.136718-35.308593-44.136718-35.3125 44.136718c-61.792969-26.480468-35.308594-123.585937-35.308594-123.585937l35.308594 44.140625 35.3125-44.140625 35.308593 44.140625 35.3125-44.140625 35.308594 44.140625 35.3125-44.140625s26.480469 97.105469-35.3125 123.585937zm0 0"/></g></svg>