<?xml version="1.0" encoding="iso-8859-1"?>
<!-- Generator: Adobe Illustrator 19.0.0, SVG Export Plug-In . SVG Version: 6.00 Build 0)  -->
<svg version="1.1" id="Layer_1" xmlns="http://www.w3.org/2000/svg" xmlns:xlink="http://www.w3.org/1999/xlink" x="0px" y="0px"
	 viewBox="0 0 512 512" style="enable-background:new 0 0 512 512;" xml:space="preserve">
<path style="fill:#e34a64"  d="M494.933,255.467c-10.667,1.067-21.333-5.333-25.6-16c-4.267-10.667-1.067-22.4,6.4-29.867
	l-5.333-11.733c-10.667,1.067-21.333-5.333-25.6-16c-4.267-10.667-1.067-22.4,6.4-29.867l-5.333-11.733
	c-10.667,1.067-21.333-5.333-25.6-16c-4.267-10.667-1.067-22.4,6.4-29.867l-4.267-9.6c-13.867,6.4-30.933,0-36.267-14.933
	l-371.2,160c6.4,13.867,0,30.933-14.933,36.267l4.267,9.6c10.667-1.067,21.333,5.333,25.6,16c4.267,10.667,1.067,22.4-6.4,29.867
	l5.333,11.733c10.667-1.067,21.333,5.333,25.6,16c4.267,10.667,1.067,22.4-6.4,29.867l5.333,11.733
	c10.667-1.067,21.333,5.333,25.6,16c4.267,10.667,1.067,22.4-6.4,29.867l4.267,9.6c13.867-6.4,30.933,0,36.267,14.933l371.2-158.933
	c-6.4-13.867,0-30.933,14.933-36.267L494.933,255.467z"/>
<path style="fill:#FFFFFF;" d="M430.933,271.467L128,400.533l-59.733-140.8L371.2,129.6L430.933,271.467z M135.467,382.4
	L412.8,262.933L363.733,148.8L86.4,268.267L135.467,382.4z"/>
<g>
	<polygon style="fill:#FFFFFF;" points="125.867,299.2 140.8,291.733 158.933,334.4 168.533,331.2 150.4,288.533 165.333,281.067 
		162.133,272.533 121.6,289.6 	"/>
	
		<rect x="176.176" y="266.566" transform="matrix(0.919 -0.3942 0.3942 0.919 -101.5268 95.4277)" style="fill:#FFFFFF;" width="10.666" height="56.532"/>
	<path style="fill:#FFFFFF;" d="M235.733,285.333c-1.067,5.333-4.267,9.6-9.6,11.733c-9.6,4.267-20.267,0-24.533-10.667
		c-4.267-10.667-1.067-20.267,9.6-24.533c4.267-2.133,10.667-1.067,14.933,1.067L227.2,264l6.4-8.533l-2.133-1.067
		c-7.467-4.267-16-5.333-24.533-2.133c-14.933,6.4-21.333,22.4-14.933,38.4C198.4,305.6,214.4,312,230.4,305.6
		c8.533-3.2,12.8-9.6,14.933-19.2v-2.133l-10.667-1.067L235.733,285.333z"/>
	<polygon style="fill:#FFFFFF;" points="272,225.6 260.267,229.867 250.667,259.733 241.067,238.4 232.533,242.667 253.867,293.867 
		263.467,289.6 256,272.533 258.133,268.267 283.733,281.067 296.533,275.733 261.333,258.667 	"/>
	<polygon style="fill:#FFFFFF;" points="298.667,274.667 333.867,259.733 329.6,251.2 304,261.867 298.667,249.067 323.2,238.4 
		320,229.867 294.4,240.533 290.133,227.733 315.733,217.067 311.467,208.533 276.267,223.467 	"/>
	<polygon style="fill:#FFFFFF;" points="314.667,206.4 318.933,216 333.867,209.6 352,252.267 361.6,248 343.467,205.333 
		359.467,198.933 355.2,189.333 	"/>
</g>
<path style="opacity:0.1;fill:#231F20;enable-background:new    ;" d="M468.267,239.467c-4.267-10.667-1.067-22.4,6.4-29.867
	l-5.333-11.733c-10.667,1.067-21.333-5.333-25.6-16c-4.267-10.667-1.067-22.4,6.4-29.867l-5.333-11.733
	c-10.667,1.067-21.333-5.333-25.6-16c-4.267-10.667-1.067-22.4,6.4-29.867l-4.267-9.6c-13.867,6.4-30.933,0-36.267-14.933
	L36.267,219.2v5.333l10.667,3.2c3.2,1.067,7.467,4.267,7.467,9.6c0,5.333-3.2,8.533-7.467,9.6l-10.667,3.2v37.333h17.067
	c6.4,0,11.733,5.333,11.733,11.733v16h381.867l37.333-16c-6.4-13.867,0-30.933,14.933-36.267l-4.267-7.467
	C484.267,256.533,473.6,250.133,468.267,239.467z"/>
<path style="fill:#565ffe;" d="M512,262.933c-10.667-3.2-18.133-12.8-18.133-24.533c0-11.733,7.467-21.333,18.133-24.533V200
	c-10.667-3.2-18.133-12.8-18.133-24.533c0-11.733,7.467-21.333,18.133-24.533v-12.8c-10.667-3.2-18.133-12.8-18.133-24.533
	S501.333,92.267,512,89.067V78.4c-14.933,0-27.733-12.8-27.733-27.733h-403.2c0,14.933-12.8,27.733-27.733,27.733V88
	C64,91.2,71.467,100.8,71.467,112.533s-8.533,21.333-18.133,25.6V152c10.667,3.2,18.133,12.8,18.133,24.533
	S64,197.867,53.333,201.067v13.867c10.667,3.2,18.133,12.8,18.133,24.533C71.467,251.2,64,260.8,53.333,264v9.6
	c14.933,0,27.733,12.8,27.733,27.733h403.2c0-14.933,12.8-27.733,27.733-27.733L512,262.933L512,262.933z"/>
<path style="fill:#FFFFFF;" d="M446.933,252.267h-329.6V99.733h329.6V252.267z M131.2,238.4h301.867V113.6H131.2V238.4z"/>
<g>
	<polygon style="fill:#FFFFFF;" points="155.733,157.333 171.733,157.333 171.733,204.267 182.4,204.267 182.4,157.333 
		199.467,157.333 199.467,147.733 155.733,147.733 	"/>
	<rect x="203.733" y="147.733" style="fill:#FFFFFF;" width="10.667" height="56.533"/>
	<path style="fill:#FFFFFF;" d="M262.4,188.267c-3.2,4.267-7.467,6.4-12.8,6.4c-10.667,0-18.133-8.533-18.133-19.2
		s7.467-19.2,18.133-19.2c5.333,0,9.6,2.133,12.8,6.4l1.067,1.067L272,158.4l-1.067-2.133C265.6,148.8,258.133,145.6,249.6,145.6
		c-17.067,0-28.8,11.733-28.8,28.8s11.733,28.8,28.8,28.8c8.533,0,16-4.267,21.333-11.733l1.067-2.133L263.467,184L262.4,188.267z"
		/>
	<polygon style="fill:#FFFFFF;" points="320,147.733 306.133,147.733 285.867,171.2 285.867,147.733 275.2,147.733 275.2,204.267 
		285.867,204.267 285.867,185.067 289.067,181.867 308.267,204.267 321.067,204.267 296.533,174.4 	"/>
	<polygon style="fill:#FFFFFF;" points="324.267,204.267 361.6,204.267 361.6,194.667 333.867,194.667 333.867,179.733 
		361.6,179.733 361.6,170.133 333.867,170.133 333.867,157.333 361.6,157.333 361.6,147.733 324.267,147.733 	"/>
	<polygon style="fill:#FFFFFF;" points="365.867,147.733 365.867,157.333 382.933,157.333 382.933,204.267 392.533,204.267 
		392.533,157.333 409.6,157.333 409.6,147.733 	"/>
</g>
<g>
</g>
<g>
</g>
<g>
</g>
<g>
</g>
<g>
</g>
<g>
</g>
<g>
</g>
<g>
</g>
<g>
</g>
<g>
</g>
<g>
</g>
<g>
</g>
<g>
</g>
<g>
</g>
<g>
</g>
</svg>
